<?xml version="1.0" encoding="utf-8"?>
<!-- Generator: Adobe Illustrator 28.0.0, SVG Export Plug-In . SVG Version: 6.00 Build 0)  -->
<svg version="1.1" id="White" xmlns="http://www.w3.org/2000/svg" xmlns:xlink="http://www.w3.org/1999/xlink" x="0px" y="0px"
	 viewBox="0 0 250 250" style="enable-background:new 0 0 250 250;" xml:space="preserve">
<style type="text/css">
	.st0{fill:#FFFFFF;}
</style>
<path id="NV_-_Outline_00000080909067574994405970000005798614663967969457_" class="st0" d="M169.59,205.87
	c-8.61,0-16.4-5.05-19.9-12.93l-43.7-98.29c-6.36-13.08-18.57-15.49-27.92-13.38c-9.39,2.13-19.43,9.63-19.43,24.32v47.99
	c0,10.06-8.15,18.21-18.21,18.21s-18.21-8.15-18.21-18.21V105.6c0-29.32,19.21-53.37,47.81-59.85s56.3,6.94,68.93,33.4l0.21,0.45
	l29.99,67.46l23.6-56.66c3.87-9.28,14.53-13.68,23.82-9.81c9.29,3.87,13.68,14.53,9.81,23.82l-36.68,88.05
	c-3.35,8.04-11.14,13.3-19.85,13.41C169.76,205.87,169.67,205.87,169.59,205.87z"/>
</svg>
