<?xml version="1.0" encoding="utf-8"?>
<!-- Generator: Adobe Illustrator 28.0.0, SVG Export Plug-In . SVG Version: 6.00 Build 0)  -->
<svg version="1.1" id="White" xmlns="http://www.w3.org/2000/svg" xmlns:xlink="http://www.w3.org/1999/xlink" x="0px" y="0px"
	 viewBox="0 0 151.87 37" style="enable-background:new 0 0 151.87 37;" xml:space="preserve">
<style type="text/css">
	.st0{fill:#FFFFFF;}
</style>
<path id="Nunya_Verse" class="st0" d="M51.38,15.18c0-0.66,0.1-1.29,0.31-1.88c0.21-0.59,0.51-1.11,0.9-1.56s0.88-0.8,1.46-1.06
	s1.23-0.4,1.97-0.4c0.75,0,1.43,0.13,2.03,0.39s1.1,0.62,1.51,1.08s0.72,1,0.94,1.61c0.22,0.62,0.33,1.28,0.33,2v7.18
	c0,0.25-0.09,0.46-0.26,0.63c-0.18,0.17-0.39,0.25-0.65,0.25c-0.12,0-0.23-0.02-0.34-0.06c-0.11-0.04-0.21-0.11-0.29-0.18
	c-0.08-0.08-0.15-0.17-0.19-0.28s-0.07-0.23-0.07-0.35v-7.16c0-0.49-0.07-0.94-0.21-1.34c-0.14-0.41-0.34-0.76-0.6-1.05
	s-0.57-0.52-0.94-0.68c-0.36-0.16-0.77-0.24-1.21-0.24c-0.44,0-0.83,0.07-1.18,0.22c-0.35,0.15-0.66,0.36-0.91,0.64
	c-0.25,0.28-0.44,0.62-0.58,1.02c-0.14,0.4-0.2,0.85-0.2,1.35v7.24c0,0.25-0.09,0.46-0.26,0.63c-0.18,0.17-0.39,0.25-0.64,0.25
	c-0.13,0-0.24-0.02-0.35-0.07c-0.11-0.04-0.21-0.11-0.29-0.19s-0.15-0.17-0.19-0.28s-0.07-0.22-0.07-0.35V15.18z M63,14.67
	c0-0.24,0.08-0.45,0.25-0.62s0.38-0.25,0.62-0.25c0.24,0,0.45,0.08,0.62,0.25c0.17,0.17,0.26,0.37,0.26,0.62v4.2
	c0.01,0.4,0.08,0.77,0.23,1.11c0.15,0.35,0.35,0.65,0.6,0.91c0.25,0.26,0.55,0.46,0.9,0.61c0.34,0.15,0.72,0.22,1.12,0.22
	s0.77-0.08,1.09-0.23c0.33-0.15,0.6-0.36,0.84-0.62c0.23-0.26,0.41-0.57,0.54-0.93s0.19-0.73,0.19-1.13v-4.14
	c0-0.12,0.02-0.23,0.07-0.34c0.05-0.11,0.11-0.2,0.19-0.28s0.17-0.14,0.28-0.19c0.11-0.05,0.22-0.07,0.34-0.07
	c0.25,0,0.46,0.08,0.62,0.25c0.16,0.17,0.24,0.38,0.24,0.62v4.1v0.05c0,0.64-0.11,1.24-0.33,1.81s-0.53,1.06-0.92,1.48
	c-0.39,0.42-0.86,0.76-1.4,1c-0.54,0.25-1.13,0.37-1.77,0.37c-0.65,0-1.25-0.12-1.81-0.37c-0.56-0.24-1.04-0.58-1.46-1
	c-0.41-0.42-0.74-0.92-0.98-1.48C63.12,20.06,63,19.46,63,18.82V14.67z M73.58,18.5v-0.04c0-0.64,0.12-1.25,0.35-1.81
	s0.56-1.06,0.97-1.49s0.89-0.76,1.45-1s1.15-0.37,1.8-0.37c0.65,0,1.25,0.12,1.81,0.37s1.04,0.58,1.46,1
	c0.41,0.42,0.74,0.92,0.97,1.49c0.23,0.57,0.35,1.17,0.35,1.81v0.05v3.99c0,0.25-0.08,0.46-0.25,0.62s-0.37,0.24-0.62,0.24
	s-0.46-0.08-0.63-0.24s-0.26-0.37-0.26-0.62v-4v-0.02c-0.01-0.4-0.08-0.78-0.23-1.14c-0.15-0.35-0.34-0.66-0.6-0.93
	c-0.25-0.26-0.55-0.47-0.9-0.63c-0.34-0.16-0.72-0.23-1.12-0.23c-0.4,0-0.78,0.07-1.12,0.22c-0.34,0.15-0.64,0.36-0.89,0.62
	s-0.45,0.57-0.59,0.93c-0.14,0.35-0.21,0.73-0.21,1.14v4.03c0,0.25-0.08,0.46-0.24,0.62s-0.37,0.24-0.61,0.24
	c-0.12,0-0.23-0.02-0.34-0.06s-0.21-0.1-0.29-0.18c-0.08-0.08-0.15-0.17-0.2-0.27c-0.05-0.11-0.08-0.22-0.08-0.35V18.5z
	 M84.48,14.67c0-0.24,0.08-0.45,0.25-0.62c0.17-0.17,0.38-0.25,0.62-0.25c0.13,0,0.24,0.02,0.34,0.06s0.2,0.1,0.28,0.18
	c0.08,0.08,0.15,0.17,0.19,0.28c0.05,0.11,0.07,0.22,0.07,0.35v4.1c0,0.41,0.08,0.79,0.23,1.14s0.36,0.66,0.62,0.92
	c0.26,0.26,0.57,0.46,0.93,0.61s0.73,0.22,1.13,0.22s0.78-0.07,1.13-0.23s0.66-0.36,0.92-0.63s0.47-0.58,0.62-0.94
	c0.15-0.36,0.23-0.74,0.23-1.16v-4.04c0-0.24,0.09-0.45,0.26-0.62c0.17-0.17,0.38-0.25,0.63-0.25c0.25,0,0.46,0.08,0.62,0.25
	s0.24,0.38,0.24,0.62v4.08c0,0.58-0.1,1.12-0.29,1.63s-0.46,0.97-0.8,1.38c-0.34,0.41-0.74,0.75-1.2,1.02
	c-0.46,0.28-0.96,0.46-1.51,0.56v2.51c0,0.12-0.02,0.23-0.07,0.34c-0.05,0.11-0.11,0.21-0.19,0.29c-0.08,0.08-0.17,0.15-0.27,0.19
	s-0.22,0.06-0.34,0.06c-0.25,0-0.46-0.08-0.63-0.25c-0.17-0.17-0.25-0.38-0.25-0.63v-2.52c-0.54-0.1-1.04-0.29-1.5-0.56
	c-0.46-0.28-0.85-0.62-1.19-1.03c-0.34-0.41-0.6-0.86-0.79-1.37c-0.19-0.51-0.28-1.05-0.28-1.62V14.67z M99.87,23.48
	c-0.67,0-1.29-0.13-1.87-0.38c-0.58-0.26-1.09-0.6-1.52-1.04c-0.43-0.44-0.78-0.95-1.03-1.54c-0.25-0.59-0.38-1.22-0.38-1.89
	c0-0.67,0.13-1.3,0.38-1.88c0.25-0.59,0.59-1.1,1.03-1.54s0.94-0.79,1.52-1.04c0.58-0.25,1.21-0.38,1.88-0.38s1.29,0.13,1.87,0.38
	c0.58,0.25,1.08,0.59,1.51,1.03c0.43,0.43,0.77,0.94,1.02,1.52c0.25,0.58,0.38,1.2,0.4,1.87v0.06v3.89c0,0.25-0.09,0.46-0.26,0.64
	s-0.39,0.26-0.64,0.26c-0.25,0-0.46-0.09-0.62-0.27c-0.16-0.18-0.24-0.39-0.24-0.64l-0.01-0.14c-0.42,0.35-0.88,0.62-1.4,0.81
	C101,23.38,100.45,23.48,99.87,23.48z M99.87,21.71c0.44,0,0.84-0.08,1.21-0.24c0.37-0.16,0.69-0.38,0.97-0.66
	c0.27-0.28,0.49-0.61,0.64-0.98c0.16-0.37,0.23-0.77,0.23-1.19c0-0.42-0.08-0.82-0.23-1.19c-0.16-0.37-0.37-0.7-0.64-0.97
	s-0.6-0.5-0.97-0.66s-0.77-0.24-1.21-0.24c-0.43,0-0.83,0.08-1.2,0.24s-0.69,0.38-0.96,0.66c-0.27,0.28-0.49,0.6-0.64,0.97
	c-0.16,0.37-0.24,0.77-0.24,1.19c0,0.42,0.08,0.82,0.24,1.19c0.16,0.37,0.37,0.7,0.64,0.98c0.27,0.28,0.59,0.5,0.96,0.66
	C99.04,21.63,99.44,21.71,99.87,21.71z M111.24,23.35l-5-12.69c-0.01-0.03-0.02-0.06-0.02-0.1c0-0.06,0.02-0.11,0.06-0.15
	c0.04-0.04,0.09-0.06,0.15-0.06c0.09,0,0.16,0.04,0.21,0.13l4.8,12.19l4.8-12.18c0.05-0.09,0.12-0.14,0.2-0.14
	c0.07,0,0.12,0.02,0.16,0.06s0.06,0.09,0.06,0.15c0,0.01-0.01,0.05-0.02,0.1l-4.99,12.63c0,0.04-0.02,0.08-0.06,0.13
	c-0.04,0.04-0.09,0.07-0.14,0.07C111.35,23.49,111.28,23.44,111.24,23.35z M118.37,23.12c-0.58-0.25-1.1-0.6-1.55-1.05
	c-0.44-0.44-0.79-0.96-1.04-1.55s-0.38-1.22-0.38-1.88c0-0.65,0.12-1.27,0.38-1.86c0.25-0.59,0.6-1.11,1.04-1.56s0.96-0.8,1.55-1.05
	c0.59-0.25,1.21-0.38,1.86-0.38c0.65,0,1.27,0.13,1.86,0.38c0.59,0.25,1.12,0.6,1.57,1.04c0.45,0.45,0.8,0.97,1.05,1.56
	s0.38,1.21,0.38,1.86c0,0.06-0.02,0.11-0.06,0.16c-0.04,0.05-0.09,0.07-0.15,0.07h-9.01c0.03,0.58,0.16,1.13,0.39,1.64
	c0.23,0.51,0.54,0.95,0.94,1.34c0.4,0.39,0.86,0.69,1.38,0.91c0.52,0.21,1.07,0.32,1.66,0.32c0.46,0,0.86-0.04,1.2-0.13
	c0.3-0.07,0.65-0.22,1.05-0.46c0.09-0.03,0.14-0.05,0.17-0.05c0.03,0,0.08,0.02,0.13,0.06c0.05,0.04,0.08,0.1,0.08,0.17
	c0,0.07-0.04,0.12-0.12,0.18c-0.38,0.22-0.76,0.39-1.12,0.49c-0.38,0.11-0.85,0.16-1.39,0.16
	C119.58,23.49,118.96,23.37,118.37,23.12z M124.64,18.47c-0.02-0.58-0.15-1.12-0.39-1.64s-0.56-0.98-0.96-1.37
	c-0.4-0.39-0.87-0.69-1.39-0.91c-0.53-0.22-1.08-0.33-1.67-0.33s-1.14,0.11-1.67,0.32c-0.53,0.21-0.99,0.52-1.38,0.92
	c-0.4,0.39-0.72,0.84-0.95,1.36c-0.23,0.52-0.35,1.07-0.37,1.65H124.64z M126.45,23.29c-0.04-0.04-0.06-0.1-0.06-0.16v-4.3
	c0-0.68,0.13-1.33,0.39-1.94s0.62-1.15,1.07-1.61c0.46-0.47,0.99-0.83,1.6-1.1c0.6-0.26,1.24-0.39,1.91-0.39h0.04
	c0.01,0.01,0.02,0.01,0.03,0.01c0.01-0.01,0.03-0.01,0.06-0.01c0.15,0,0.23,0.08,0.23,0.23c0,0.06-0.02,0.11-0.06,0.15
	c-0.04,0.04-0.1,0.06-0.17,0.06h-0.13c-0.6,0-1.18,0.12-1.73,0.36c-0.55,0.24-1.04,0.57-1.46,0.99s-0.75,0.92-0.99,1.48
	c-0.24,0.56-0.36,1.15-0.36,1.77v4.3c0,0.06-0.02,0.12-0.05,0.16s-0.08,0.06-0.13,0.06C126.55,23.36,126.49,23.34,126.45,23.29z
	 M132.58,23.3c-0.04-0.04-0.06-0.09-0.06-0.16c0-0.06,0.02-0.11,0.06-0.15c0.04-0.04,0.09-0.06,0.14-0.06h4.67
	c0.26,0,0.53-0.06,0.78-0.17c0.26-0.11,0.49-0.27,0.69-0.47c0.21-0.2,0.38-0.43,0.5-0.7s0.18-0.56,0.18-0.87
	c0-0.3-0.06-0.57-0.17-0.82c-0.12-0.25-0.28-0.47-0.48-0.65c-0.2-0.18-0.43-0.32-0.69-0.42s-0.54-0.16-0.82-0.17h-2.21
	c-0.34,0-0.65-0.06-0.95-0.18c-0.3-0.12-0.56-0.3-0.78-0.52c-0.22-0.22-0.4-0.48-0.53-0.78c-0.13-0.3-0.19-0.62-0.19-0.96
	c0-0.33,0.06-0.64,0.19-0.94c0.12-0.3,0.3-0.56,0.53-0.78s0.49-0.4,0.78-0.52c0.3-0.12,0.61-0.18,0.95-0.18h4
	c0.15,0,0.22,0.07,0.22,0.22c0,0.15-0.07,0.22-0.22,0.22h-4.04c-0.28,0-0.55,0.05-0.79,0.16s-0.45,0.26-0.63,0.45
	c-0.18,0.19-0.32,0.4-0.42,0.64c-0.1,0.24-0.15,0.48-0.15,0.73c0,0.26,0.05,0.51,0.15,0.75c0.1,0.24,0.24,0.45,0.42,0.64
	c0.18,0.19,0.4,0.34,0.64,0.45c0.24,0.11,0.5,0.16,0.77,0.16h2.26c0.35,0,0.68,0.06,1,0.19s0.59,0.3,0.83,0.54
	c0.24,0.23,0.42,0.5,0.55,0.81s0.2,0.64,0.2,0.99c0,0.35-0.07,0.69-0.2,1s-0.32,0.6-0.55,0.84c-0.25,0.25-0.52,0.44-0.84,0.57
	c-0.31,0.14-0.65,0.2-1,0.2h-4.66C132.67,23.36,132.62,23.34,132.58,23.3z M144.01,23.12c-0.58-0.25-1.1-0.6-1.55-1.05
	c-0.44-0.44-0.79-0.96-1.04-1.55s-0.38-1.22-0.38-1.88c0-0.65,0.12-1.27,0.38-1.86c0.25-0.59,0.6-1.11,1.04-1.56s0.96-0.8,1.55-1.05
	c0.59-0.25,1.21-0.38,1.86-0.38c0.65,0,1.27,0.13,1.86,0.38c0.59,0.25,1.12,0.6,1.57,1.04c0.45,0.45,0.8,0.97,1.05,1.56
	s0.38,1.21,0.38,1.86c0,0.06-0.02,0.11-0.06,0.16c-0.04,0.05-0.09,0.07-0.15,0.07h-9.01c0.03,0.58,0.16,1.13,0.39,1.64
	c0.23,0.51,0.54,0.95,0.94,1.34c0.4,0.39,0.86,0.69,1.38,0.91c0.52,0.21,1.07,0.32,1.66,0.32c0.46,0,0.86-0.04,1.2-0.13
	c0.3-0.07,0.65-0.22,1.05-0.46c0.09-0.03,0.14-0.05,0.17-0.05c0.03,0,0.08,0.02,0.13,0.06c0.05,0.04,0.08,0.1,0.08,0.17
	c0,0.07-0.04,0.12-0.12,0.18c-0.38,0.22-0.76,0.39-1.12,0.49c-0.38,0.11-0.85,0.16-1.39,0.16
	C145.21,23.49,144.59,23.37,144.01,23.12z M150.28,18.47c-0.02-0.58-0.15-1.12-0.39-1.64s-0.56-0.98-0.96-1.37
	c-0.4-0.39-0.87-0.69-1.39-0.91c-0.53-0.22-1.08-0.33-1.67-0.33s-1.14,0.11-1.67,0.32c-0.53,0.21-0.99,0.52-1.38,0.92
	c-0.4,0.39-0.72,0.84-0.95,1.36c-0.23,0.52-0.35,1.07-0.37,1.65H150.28z"/>
<path id="NV" class="st0" d="M33.25,35.87c-1.85,0-3.52-1.09-4.27-2.78l-9.38-21.11c-1.37-2.81-3.99-3.33-6-2.87
	c-2.02,0.46-4.17,2.07-4.17,5.22v10.31c0,2.16-1.75,3.91-3.91,3.91c-2.16,0-3.91-1.75-3.91-3.91V14.33c0-6.3,4.13-11.46,10.27-12.85
	c6.14-1.39,12.09,1.49,14.8,7.17l0.04,0.1l6.44,14.49l5.07-12.17c0.83-1.99,3.12-2.94,5.12-2.11c1.99,0.83,2.94,3.12,2.11,5.12
	l-7.88,18.91c-0.72,1.73-2.39,2.86-4.26,2.88C33.29,35.87,33.27,35.87,33.25,35.87z"/>
</svg>
