<?xml version="1.0" encoding="utf-8"?>
<!-- Generator: Adobe Illustrator 28.0.0, SVG Export Plug-In . SVG Version: 6.00 Build 0)  -->
<svg version="1.1" id="White" xmlns="http://www.w3.org/2000/svg" xmlns:xlink="http://www.w3.org/1999/xlink" x="0px" y="0px"
	 viewBox="0 0 151.87 37" style="enable-background:new 0 0 151.87 37;" xml:space="preserve">
<style type="text/css">
	.st0{fill:#FFFFFF;}
</style>
<path id="NV_00000051346266679677641330000007592068628800460685_" class="st0" d="M28.74,31.09c-1.34,0-2.55-0.79-3.1-2.01
	l-6.8-15.3c-0.99-2.04-2.89-2.41-4.35-2.08c-1.46,0.33-3.02,1.5-3.02,3.79v7.47c0,1.57-1.27,2.84-2.84,2.84
	c-1.57,0-2.84-1.27-2.84-2.84v-7.47c0-4.56,2.99-8.31,7.44-9.32c4.45-1.01,8.76,1.08,10.73,5.2L24,11.43l4.67,10.5l3.67-8.82
	c0.6-1.45,2.26-2.13,3.71-1.53c1.45,0.6,2.13,2.26,1.53,3.71L31.87,29c-0.52,1.25-1.73,2.07-3.09,2.09
	C28.76,31.09,28.75,31.09,28.74,31.09z"/>
</svg>
